#!OML:ASF F:\VICON\USERDATA\INSTALL\rory3\rory3.ASF
:FULLY-SPECIFIED
:DEGREES
900
root -0.615932 15.7954 -1.35349 -160.459 6.91135 185.638
lowerback 10.2615 2.71936 6.43852
upperback 5.86887 4.8165 0.398532
thorax 0.869897 2.83378 -3.61337
lowerneck -11.3952 2.59871 -0.543837
upperneck 41.6615 -3.92841 3.44121
head 17.2632 -2.81869 0.493107
rclavicle -8.34896e-015 -2.26615e-014
rhumerus -110.256 -216.836 138.491
rradius 47.6409
rwrist -45.3122
rhand 10.1122 7.57641
rfingers 7.12502
rthumb 35.2328 -18.925
lclavicle -8.34896e-015 -2.26615e-014
lhumerus 88.7596 -27.052 31.4523
lradius 47.7532
lwrist 35.4571
lhand 17.2739 30.5821
lfingers 7.12502
lthumb 41.9875 55.1763
rfemur -48.6048 -14.1705 35.2335
rtibia 69.7437
rfoot -18.1994 -13.1007
rtoes -6.24661
lfemur -62.0112 15.2537 -36.7248
ltibia 52.993
lfoot -21.9926 15.9806
ltoes 1.56031
901
root -0.604861 15.8274 -1.36296 -160.379 7.03189 185.604
lowerback 8.96003 2.63307 6.49153
upperback 5.84948 4.56723 0.432748
thorax 1.53686 2.71304 -3.49721
lowerneck -11.0493 2.83859 -0.767775
upperneck 41.7784 -3.56177 3.35194
head 17.2223 -2.75551 0.551131
rclavicle 3.47873e-014 6.75868e-015
rhumerus -108.855 -215.556 139.347
rradius 49.2915
rwrist -48.3504
rhand 9.99641 6.64468
rfingers 7.12502
rthumb 35.1229 -19.8826
lclavicle 3.47873e-014 6.75868e-015
lhumerus 88.645 -24.9113 31.1152
lradius 48.6536
lwrist 37.461
lhand 18.5551 29.9106
lfingers 7.12502
lthumb 43.1867 54.0902
rfemur -47.2394 -13.2507 34.856
rtibia 67.8283
rfoot -18.8165 -13.0164
rtoes -6.83586
lfemur -61.6301 14.9096 -36.4171
ltibia 52.4745
lfoot -22.1514 16.1271
ltoes 2.29051
902
root -0.587076 15.8622 -1.36194 -160.439 7.06498 185.485
lowerback 7.87305 2.74844 6.37944
upperback 6.04979 4.62331 0.414916
thorax 2.34357 2.7649 -3.36868
lowerneck -11.0556 2.73287 -0.588736
upperneck 41.5118 -3.62806 3.31256
head 17.0724 -2.73992 0.495786
rclavicle -8.11041e-014 -3.97569e-016
rhumerus -106.529 -213.125 141.088
rradius 49.4978
rwrist -51.9653
rhand 10.199 6.36966
rfingers 7.12502
rthumb 35.3151 -20.1122
lclavicle -8.11041e-014 -3.97569e-016
lhumerus 89.4232 -22.741 30.473
lradius 49.5525
lwrist 39.8303
lhand 20.052 29.4691
lfingers 7.12502
lthumb 44.5835 53.1309
rfemur -45.8085 -12.2642 34.406
rtibia 65.9658
rfoot -19.4592 -13.3424
rtoes -6.90724
lfemur -61.136 14.5867 -36.151
ltibia 51.9456
lfoot -21.9412 16.3374
ltoes 1.87867
903
root -0.561265 15.8976 -1.35547 -160.462 6.84978 185.374
lowerback 7.11818 2.73004 6.20541
upperback 5.8922 4.49653 0.488362
thorax 2.5615 2.67891 -3.14726
lowerneck -10.563 2.78122 -0.528193
upperneck 41.2571 -3.53627 3.32676
head 16.7991 -2.70861 0.511119
rclavicle -4.25399e-014 -1.66979e-014
rhumerus -105.649 -211.284 141.068
rradius 49.8633
rwrist -54.804
rhand 11.5469 5.75247
rfingers 7.12502
rthumb 36.5921 -20.4164
lclavicle -4.25399e-014 -1.66979e-014
lhumerus 89.6057 -21.1416 30.07
lradius 50.1962
lwrist 41.1944
lhand 20.9071 28.4909
lfingers 7.12502
lthumb 45.3792 51.8395
rfemur -44.5113 -11.3303 34.119
rtibia 64.1065
rfoot -19.9156 -13.4143
rtoes -6.07842
lfemur -60.6681 14.2426 -35.8756
ltibia 51.4332
lfoot -21.8324 16.0823
ltoes 2.73209
904
root -0.542849 15.9385 -1.37889 -160.634 6.9183 185.463
lowerback 6.54327 2.7971 6.22143
upperback 5.61923 4.50347 0.561805
thorax 2.59104 2.65529 -3.0542
lowerneck -10.0246 2.87008 -0.393272
upperneck 41.2508 -3.47541 3.20633
head 16.6527 -2.72065 0.440033
rclavicle -3.33958e-014 4.77083e-015
rhumerus -104.884 -209.614 140.877
rradius 50.1264
rwrist -58.4612
rhand 13.3009 4.75709
rfingers 7.12502
rthumb 38.25 -20.9737
lclavicle -3.33958e-014 4.77083e-015
lhumerus 89.4504 -19.9225 30.4276
lradius 50.1784
lwrist 40.9342
lhand 23.8164 26.5531
lfingers 7.12502
lthumb 48.0723 48.7321
rfemur -42.7808 -10.2599 33.831
rtibia 62.1503
rfoot -20.6538 -13.1122
rtoes -4.72223
lfemur -59.9716 14.2383 -35.4318
ltibia 50.9625
lfoot -22.0163 15.8302
ltoes 3.69247
905
root -0.528144 15.978 -1.39894 -160.678 6.95323 185.496
lowerback 5.83147 2.88863 6.27549
upperback 5.32956 4.53227 0.596378
thorax 2.68938 2.64475 -3.01387
lowerneck -9.58013 2.92343 -0.289923
upperneck 41.3025 -3.50613 3.15509
head 16.5691 -2.76532 0.389114
rclavicle -5.66536e-014 3.4191e-014
rhumerus -103.821 -207.891 141.446
rradius 50.3515
rwrist -61.4596
rhand 12.8972 4.28448
rfingers 7.12502
rthumb 37.8687 -21.5503
lclavicle -5.66536e-014 3.4191e-014
lhumerus 89.4622 -18.5553 30.0617
lradius 51.4104
lwrist 43.097
lhand 24.3126 26.7054
lfingers 7.12502
lthumb 48.5293 48.6674
rfemur -41.288 -9.26964 33.5383
rtibia 60.2153
rfoot -21.429 -13.4236
rtoes -6.14367
lfemur -59.4853 14.1475 -35.1211
ltibia 50.5421
lfoot -21.7797 15.9435
ltoes 3.33143
906
root -0.509452 16.008 -1.40926 -160.736 6.80805 185.327
lowerback 5.13068 2.91106 6.16836
upperback 5.01228 4.46332 0.601427
thorax 2.73297 2.57802 -2.91605
lowerneck -9.09079 3.00543 0.00533662
upperneck 41.4443 -3.52611 2.95287
head 16.5191 -2.80337 0.236274
rclavicle 1.86858e-014 1.31198e-014
rhumerus -103.154 -206.122 141.174
rradius 50.1548
rwrist -63.9125
rhand 13.8149 3.83906
rfingers 7.12502
rthumb 38.735 -21.7564
lclavicle 1.86858e-014 1.31198e-014
lhumerus 89.5168 -17.1631 29.1451
lradius 53.5183
lwrist 47.3579
lhand 21.3268 28.4286
lfingers 7.12502
lthumb 45.7691 51.6186
rfemur -39.8907 -8.30085 33.0974
rtibia 58.332
rfoot -22.2322 -13.736
rtoes -7.06561
lfemur -59.0453 13.9001 -35.0318
ltibia 50.1465
lfoot -21.2048 16.2488
ltoes 1.35722
